<svg class="diagram-root" style="background: #f5f6f6" xmlns="http://www.w3.org/2000/svg" xmlns:xlink="http://www.w3.org/1999/xlink"><style>.diagram-root { font-family: "Helvetica Neue", sans-serif; font-size: 12px; } .t { overflow: visible; } .t-bg { y: 40; fill: #fff;   } .th { fill: #005aa0;   } .tht { fill: #fff; font-size: 14px;  } .tf { fill: #323c46; overflow: visible; } .tf.pk { fill: #005aa0; font-weight: bold; } .tf.fk { font-weight: bold; } .ty { fill: #adb1b5; font-weight: normal; text-anchor: end; } .r { fill: transparent; stroke: #c3c3c3; stroke-width: 1; } .l { stroke: 1; } .i { fill: #c2c7ce; stroke: #c2c7ce; } .i.ix { fill: #afb3b6; stroke: #000; } .fa { fill: transparent; overflow: visible; } .fa .bg.hover { fill: #f7f7f7; } .c { cy: 12; r: 4; stroke: #d2d2dc; fill: #d2d2dc; } .hr { fill: transparent; stroke: #323c46; stroke-opacity: 0.035; stroke-width: 13; } .dc { stroke: #fa5a3c; fill: #fa5a3c; } .x { stroke: white; stroke-width: 1; } .hl .th { fill: #1b9bff; } .hl .tht {  } .fhl .bg { fill: #e7f4ff; } .fhls .bg {  } .r.hl { stroke: #1b9bff; } .dim { opacity: 0.25; }</style><g class="drawing-wrapper" transform="translate(73, 169) scale(1,1)"><g class="rs"><path d="M 272 -38 m -1, 0 a 1,1 0 1,0 2,0 a 1,1 0 1,0 -2,0 M 272 -38 m -0.5, 0 a 0.5,0.5 0 1,0 1,0 a 0.5,0.5 0 1,0 -1,0  M272 -38 L272 -38 260 -38 M266 -32 L266 -32 266 -44 M260 -38 Q 222.6 -38, 185.2 -60 T 110.39 -82 M 98.39 -82 m -1, 0 a 1,1 0 1,0 2,0 a 1,1 0 1,0 -2,0 M 98.39 -82 m -0.5, 0 a 0.5,0.5 0 1,0 1,0 a 0.5,0.5 0 1,0 -1,0  M98.39 -82 L98.39 -82 110.39 -82 M104.39 -76 L104.39 -76 104.39 -88" id="h3304753978" class="r"></path><path d="M 272 -13 m -1, 0 a 1,1 0 1,0 2,0 a 1,1 0 1,0 -2,0 M 272 -13 m -0.5, 0 a 0.5,0.5 0 1,0 1,0 a 0.5,0.5 0 1,0 -1,0  M272 -13 L272 -13 260 -13 M266 -7 L266 -7 266 -19 M260 -13 Q 217.69 -13, 175.37 32 T 90.74 77 M 78.74 77 m -1, 0 a 1,1 0 1,0 2,0 a 1,1 0 1,0 -2,0 M 78.74 77 m -0.5, 0 a 0.5,0.5 0 1,0 1,0 a 0.5,0.5 0 1,0 -1,0  M78.74 77 L78.74 77 90.74 77 M84.74 83 L84.74 83 84.74 71" id="h3782856632" class="r"></path><path d="M -10 331 m -1, 0 a 1,1 0 1,0 2,0 a 1,1 0 1,0 -2,0 M -10 331 m -0.5, 0 a 0.5,0.5 0 1,0 1,0 a 0.5,0.5 0 1,0 -1,0  M-10 331 L-10 331 -22 331 M-16 337 L-16 337 -16 325 M-22 331 C -137.024 331, -112.64 77, -62.64 77 M -50.64 77 m -1, 0 a 1,1 0 1,0 2,0 a 1,1 0 1,0 -2,0 M -50.64 77 m -0.5, 0 a 0.5,0.5 0 1,0 1,0 a 0.5,0.5 0 1,0 -1,0  M-50.64 77 L-50.64 77 -62.64 77 M-56.64 83 L-56.64 83 -56.64 71" id="h221257298" class="r"></path><path d="M 242 192 m -1, 0 a 1,1 0 1,0 2,0 a 1,1 0 1,0 -2,0 M 242 192 m -0.5, 0 a 0.5,0.5 0 1,0 1,0 a 0.5,0.5 0 1,0 -1,0  M242 192 L242 192 230 192 M236 198 L236 198 236 186 M230 192 C 180 192, 162 -38, 260 -38 M 272 -38 m -1, 0 a 1,1 0 1,0 2,0 a 1,1 0 1,0 -2,0 M 272 -38 m -0.5, 0 a 0.5,0.5 0 1,0 1,0 a 0.5,0.5 0 1,0 -1,0  M272 -38 L272 -38 260 -38 M266 -32 L266 -32 266 -44" id="h867591336" class="r"></path></g><g class="hrs"></g><g class="ts"><svg width="149.39" height="100" x="-51" y="-139" id="h3708248841" class="t"><rect height="40" width="149.39" class="th"></rect><text x="13" y="25" class="tht">Departments</text><rect height="60" width="149.39" class="t-bg" y="40"></rect><text x="13" y="61" class="tf pk">dept_no<tspan x="136.39" class="ty">varchar</tspan></text><path d="M7,14A2,2 0 0,1 5,12A2,2 0 0,1 7,10A2,2 0 0,1 9,12A2,2 0 0,1 7,14M12.65,10C11.83,7.67 9.61,6 7, 6A6, 6 0 0, 0 1, 12A6, 6 0 0, 0 7, 18C9.61, 18 11.83, 16.33 12.65, 14H17V18H21V14H23V10H12.65Z" class="i pk" transform="translate(76.37632812499999, 48) scale(0.65)"></path><text x="13" y="86" class="tf">dept_name<tspan x="136.39" class="ty">varchar</tspan></text></svg><svg width="129.38" height="200" x="-50.64" y="20" id="h3299212598" class="t"><rect height="40" width="129.38" class="th"></rect><text x="13" y="25" class="tht">Employees</text><rect height="160" width="129.38" class="t-bg" y="40"></rect><text x="13" y="61" class="tf fk">emp_no<tspan x="116.38" class="ty">varchar</tspan></text><text x="13" y="86" class="tf">birth_date<tspan x="116.38" class="ty">int</tspan></text><text x="13" y="111" class="tf">first_name<tspan x="116.38" class="ty">int</tspan></text><text x="13" y="136" class="tf">last_name<tspan x="116.38" class="ty">int</tspan></text><text x="13" y="161" class="tf">gender<tspan x="116.38" class="ty">int</tspan></text><text x="13" y="186" class="tf">hire<tspan x="116.38" class="ty">int</tspan></text></svg><svg width="149.39" height="150" x="272" y="-95" id="h526843498" class="t"><rect height="40" width="149.39" class="th"></rect><text x="13" y="25" class="tht">Managers</text><rect height="110" width="149.39" class="t-bg" y="40"></rect><text x="13" y="61" class="tf pk">dept_no<tspan x="136.39" class="ty">varchar</tspan></text><path d="M7,14A2,2 0 0,1 5,12A2,2 0 0,1 7,10A2,2 0 0,1 9,12A2,2 0 0,1 7,14M12.65,10C11.83,7.67 9.61,6 7, 6A6, 6 0 0, 0 1, 12A6, 6 0 0, 0 7, 18C9.61, 18 11.83, 16.33 12.65, 14H17V18H21V14H23V10H12.65Z" class="i pk" transform="translate(76.37632812499999, 48) scale(0.65)"></path><text x="13" y="86" class="tf pk">emp_no<tspan x="136.39" class="ty">int</tspan></text><path d="M7,14A2,2 0 0,1 5,12A2,2 0 0,1 7,10A2,2 0 0,1 9,12A2,2 0 0,1 7,14M12.65,10C11.83,7.67 9.61,6 7, 6A6, 6 0 0, 0 1, 12A6, 6 0 0, 0 7, 18C9.61, 18 11.83, 16.33 12.65, 14H17V18H21V14H23V10H12.65Z" class="i pk" transform="translate(103.71617187499999, 73) scale(0.65)"></path><text x="13" y="111" class="tf">from_date<tspan x="136.39" class="ty">date</tspan></text><text x="13" y="136" class="tf">to_date<tspan x="136.39" class="ty">date</tspan></text></svg><svg width="129.38" height="150" x="-10" y="274" id="h3858243705" class="t"><rect height="40" width="129.38" class="th"></rect><text x="13" y="25" class="tht">Salaries</text><rect height="110" width="129.38" class="t-bg" y="40"></rect><text x="13" y="61" class="tf fk">emp_no<tspan x="116.38" class="ty">varchar</tspan></text><text x="13" y="86" class="tf">salary<tspan x="116.38" class="ty">int</tspan></text><text x="13" y="111" class="tf">from_date<tspan x="116.38" class="ty">date</tspan></text><text x="13" y="136" class="tf">to_date<tspan x="116.38" class="ty">date</tspan></text></svg><svg width="149.39" height="150" x="242" y="135" id="h3353995054" class="t"><rect height="40" width="149.39" class="th"></rect><text x="13" y="25" class="tht">Dept_Emp</text><rect height="110" width="149.39" class="t-bg" y="40"></rect><text x="13" y="61" class="tf pk">dept_no<tspan x="136.39" class="ty">varchar</tspan></text><path d="M7,14A2,2 0 0,1 5,12A2,2 0 0,1 7,10A2,2 0 0,1 9,12A2,2 0 0,1 7,14M12.65,10C11.83,7.67 9.61,6 7, 6A6, 6 0 0, 0 1, 12A6, 6 0 0, 0 7, 18C9.61, 18 11.83, 16.33 12.65, 14H17V18H21V14H23V10H12.65Z" class="i pk" transform="translate(76.37632812499999, 48) scale(0.65)"></path><text x="13" y="86" class="tf">emp_no<tspan x="136.39" class="ty">int</tspan></text><text x="13" y="111" class="tf">from_date<tspan x="136.39" class="ty">date</tspan></text><text x="13" y="136" class="tf">to_date<tspan x="136.39" class="ty">date</tspan></text></svg></g></g><text class="qdbd-link" x="10" y="20">www.quickdatabasediagrams.com</text></svg>